<svg xmlns="http://www.w3.org/2000/svg" width="12" height="8" viewBox="0 0 12 8" fill="none">
<path d="M5.62617 7.81106L0.142609 1.02225C0.051067 0.908977 0 0.758483 0 0.601985C0 0.445487 0.051067 0.294995 0.142609 0.18172L0.148805 0.174411C0.193183 0.119307 0.2466 0.0754294 0.305807 0.0454459C0.365014 0.0154624 0.428773 4.76837e-07 0.493206 4.76837e-07C0.557638 4.76837e-07 0.621397 0.0154624 0.680604 0.0454459C0.739811 0.0754294 0.793228 0.119307 0.837606 0.174411L6.00103 6.56732L11.1624 0.174411C11.2068 0.119307 11.2602 0.0754294 11.3194 0.0454459C11.3786 0.0154624 11.4424 4.76837e-07 11.5068 4.76837e-07C11.5712 4.76837e-07 11.635 0.0154624 11.6942 0.0454459C11.7534 0.0754294 11.8068 0.119307 11.8512 0.174411L11.8574 0.18172C11.9489 0.294995 12 0.445487 12 0.601985C12 0.758483 11.9489 0.908977 11.8574 1.02225L6.37383 7.81106C6.32561 7.87077 6.26761 7.9183 6.20335 7.95078C6.13909 7.98325 6.06991 8 6 8C5.93009 8 5.86091 7.98325 5.79665 7.95078C5.73239 7.9183 5.67439 7.87077 5.62617 7.81106Z" fill="#2E3482"/>
</svg>