<svg xmlns="http://www.w3.org/2000/svg" width="14" height="18" viewBox="0 0 14 18" fill="none">
<path d="M13.5 6.66667C13.5 7.47518 13.1665 8.56261 12.6005 9.78001C12.0409 10.9836 11.2796 12.2611 10.4807 13.4323C9.68191 14.6033 8.85397 15.6558 8.167 16.4103C7.8224 16.7888 7.52194 17.0827 7.28468 17.2778C7.16547 17.3759 7.07281 17.4401 7.00657 17.4774C7.00431 17.4786 7.00212 17.4798 7 17.481C6.99788 17.4798 6.99569 17.4786 6.99343 17.4774C6.92719 17.4401 6.83453 17.3759 6.71532 17.2778C6.47806 17.0827 6.1776 16.7888 5.833 16.4103C5.14603 15.6558 4.31809 14.6033 3.5193 13.4323C2.72044 12.2611 1.95908 10.9836 1.39949 9.78001C0.833494 8.56261 0.5 7.47518 0.5 6.66667C0.5 3.28362 3.38688 0.5 7 0.5C10.6131 0.5 13.5 3.28362 13.5 6.66667Z" fill="white" stroke="#2E3482"/>
<path d="M10.5525 6.83988C10.5525 8.73995 8.97292 10.2999 6.9999 10.2999C5.02687 10.2999 3.44727 8.73995 3.44727 6.83988C3.44727 4.93981 5.02687 3.37988 6.9999 3.37988C8.97292 3.37988 10.5525 4.93981 10.5525 6.83988Z" stroke="#2E3482"/>
</svg>