<svg xmlns="http://www.w3.org/2000/svg" width="108" height="63" viewBox="0 0 108 63" fill="none">
<path d="M97.9535 29.671V41.0656C97.9535 42.7475 97.629 43.9809 96.9658 44.7657C96.3027 45.5506 95.4983 45.943 94.5106 45.943C93.4664 45.943 92.6763 45.5927 92.1401 44.8779C91.6039 44.1631 91.3358 42.9858 91.3358 41.3319V29.671H81.247V38.669C80.9507 37.4636 80.4709 36.3284 79.8077 35.2772C78.6083 33.3711 76.9151 31.8854 74.7703 30.8203C73.9096 30.3998 73.0207 30.0634 72.0753 29.8111C73.1336 29.6009 74.0507 29.2785 74.8127 28.8441L72.3998 21.8923C71.7507 22.3408 70.9888 22.5511 70.1281 22.5511C69.5072 22.5511 68.9992 22.3408 68.6041 21.9344C68.2232 21.5139 68.0257 20.9393 68.0257 20.2105V14.0997H73.0207V6.78353H68.0257V0H57.9368V5.45206H46.6486C47.8056 5.71835 48.9062 6.09676 49.9363 6.60132C52.0951 7.66651 53.7743 9.15217 54.9737 11.0583C56.173 12.9644 56.7797 15.1228 56.7797 17.5475C56.7797 19.9722 56.173 22.1306 54.9737 24.0367C53.7743 25.9428 52.0951 27.4285 49.9363 28.5077C48.9486 28.9982 47.9044 29.6009 47.7915 29.671H47.7774L42.6413 41.1357L37.6039 29.671H37.5757C37.4628 29.6149 36.2775 28.9982 35.2898 28.5077C33.1309 27.4285 31.4518 25.9288 30.2242 24.0367C29.0107 22.1306 28.3899 19.9722 28.3899 17.5475C28.3899 15.1228 28.9966 12.9644 30.2242 11.0583C31.4377 9.15217 33.1309 7.66651 35.2898 6.60132C36.3199 6.09676 37.4204 5.71835 38.5775 5.45206H18.9642V8.1991C17.4826 6.06873 15.0698 5.00355 11.7398 5.00355C9.65144 5.00355 7.71832 5.48008 5.91221 6.44715C4.10609 7.41423 2.68097 8.77376 1.60859 10.5397C0.536211 12.3057 0 14.352 0 16.6505C0 18.9491 0.536211 20.9953 1.60859 22.7893C2.68097 24.5833 4.1202 25.9568 5.91221 26.9099C7.71832 27.877 9.65144 28.3535 11.7398 28.3535C14.717 28.3535 16.9605 27.4985 18.4703 25.7886V26.2372C18.4703 27.891 18.0047 29.1524 17.0876 30.0073C16.1704 30.8623 14.6888 31.2968 12.671 31.2968C11.3306 31.2968 9.93365 31.0725 8.48029 30.638C7.02693 30.1895 5.81345 29.6149 4.86806 28.9141L1.4816 35.7397C2.96318 36.7208 4.76928 37.4636 6.88582 37.9822C9.00236 38.5008 11.2741 38.7531 13.7152 38.7531C18.4703 38.7531 22.139 37.5898 24.7212 35.2772C26.0617 34.0719 27.0494 32.5442 27.6843 30.7081L37.5333 54.2543C36.9689 54.899 36.1364 55.2354 35.0358 55.2354C34.4432 55.2354 33.8224 55.1233 33.1874 54.885C32.5524 54.6467 31.9739 54.3384 31.4659 53.96L28.1218 60.8276C28.9261 61.4723 30.0126 62.0049 31.3954 62.3973C32.7782 62.7898 34.161 63 35.5156 63C38.2812 63 40.6235 62.3693 42.5143 61.0939C44.4191 59.8185 46.0136 57.604 47.2835 54.4505L53.4921 39.1735C53.3228 40.0145 53.224 40.8974 53.224 41.8225C53.224 44.2472 53.8307 46.4056 55.0583 48.3117C56.2718 50.2178 57.965 51.7035 60.1239 52.7827C62.2827 53.8619 64.7098 54.3944 67.4189 54.3944C70.1281 54.3944 72.5973 53.8619 74.7562 52.7827C76.9151 51.7035 78.5942 50.2178 79.7936 48.3117C80.4991 47.1904 81.0071 45.9711 81.2893 44.6536C81.515 47.667 82.4322 49.9795 84.0408 51.5913C85.9174 53.4694 88.4009 54.4084 91.4911 54.4084C92.8315 54.4084 94.0873 54.1842 95.2867 53.7217C96.472 53.2592 97.5161 52.5724 98.405 51.6614V53.96H108V29.713H97.9112L97.9535 29.671ZM17.4262 19.4676C16.636 20.1964 15.6483 20.5468 14.463 20.5468C13.2778 20.5468 12.2759 20.1824 11.4717 19.4676C10.6674 18.7388 10.2723 17.7998 10.2723 16.6505C10.2723 15.5012 10.6674 14.5622 11.4575 13.8614C12.2477 13.1466 13.2495 12.7962 14.463 12.7962C15.6765 12.7962 16.636 13.1466 17.4262 13.8614C18.2164 14.5762 18.6115 15.5012 18.6115 16.6505C18.6115 17.7998 18.2164 18.7388 17.4262 19.4676ZM70.3115 45.2983C69.5637 46.1393 68.6183 46.5597 67.4612 46.5597C66.3042 46.5597 65.3446 46.1393 64.6109 45.2983C63.8631 44.4574 63.4962 43.2801 63.4962 41.7804C63.4962 40.2808 63.8631 39.1034 64.6109 38.2765C65.3588 37.4496 66.3042 37.0291 67.4612 37.0291C68.6183 37.0291 69.5778 37.4496 70.3115 38.2765C71.0594 39.1034 71.4262 40.2667 71.4262 41.7804C71.4262 43.2941 71.0594 44.4574 70.3115 45.2983Z" fill="#2E3482"/>
<path d="M41.442 24.0086L35.7133 18.3182C35.4875 18.094 35.4875 17.7436 35.7133 17.5194L38.4789 14.7723C38.7047 14.5481 39.0574 14.5481 39.2832 14.7723L41.4562 16.9307C41.6819 17.155 42.0347 17.155 42.2605 16.9307L46.8039 12.4177C47.0297 12.1934 47.3825 12.1934 47.6082 12.4177L50.3739 15.1647C50.5996 15.389 50.5996 15.7394 50.3739 15.9636L42.2605 24.0226C42.0347 24.2468 41.6819 24.2468 41.4562 24.0226L41.442 24.0086Z" fill="#2E3482"/>
</svg>